<svg width="358" height="51" viewBox="0 0 358 51" fill="none" xmlns="http://www.w3.org/2000/svg">
<rect x="0.5" y="0.837158" width="357" height="49.152" rx="1.5" stroke="#C4C4C4"/>
<path d="M155.836 23C155.695 22.5696 155.51 22.1839 155.28 21.843C155.054 21.4979 154.783 21.2038 154.468 20.9609C154.157 20.718 153.803 20.5327 153.407 20.4048C153.011 20.277 152.576 20.2131 152.103 20.2131C151.327 20.2131 150.622 20.4134 149.987 20.8139C149.352 21.2145 148.847 21.8047 148.472 22.5845C148.097 23.3643 147.91 24.321 147.91 25.4545C147.91 26.5881 148.099 27.5447 148.479 28.3246C148.858 29.1044 149.371 29.6946 150.019 30.0952C150.667 30.4957 151.396 30.696 152.205 30.696C152.955 30.696 153.616 30.5362 154.187 30.2166C154.762 29.8928 155.209 29.4368 155.529 28.8487C155.853 28.2564 156.015 27.5597 156.015 26.7585L156.501 26.8608H152.563V25.4545H157.549V26.8608C157.549 27.9389 157.319 28.8764 156.859 29.6733C156.403 30.4702 155.772 31.0881 154.967 31.527C154.165 31.9616 153.245 32.179 152.205 32.179C151.046 32.179 150.028 31.9062 149.15 31.3608C148.276 30.8153 147.594 30.0398 147.104 29.0341C146.619 28.0284 146.376 26.8352 146.376 25.4545C146.376 24.419 146.514 23.4879 146.791 22.6612C147.072 21.8303 147.469 21.1229 147.98 20.5391C148.491 19.9553 149.097 19.5078 149.795 19.1967C150.494 18.8857 151.263 18.7301 152.103 18.7301C152.793 18.7301 153.437 18.8345 154.033 19.0433C154.634 19.2479 155.169 19.5398 155.638 19.919C156.111 20.294 156.505 20.7436 156.82 21.2678C157.136 21.7876 157.353 22.3651 157.472 23H155.836ZM166.247 27.9858V22.1818H167.755V32H166.247V30.3381H166.145C165.915 30.8366 165.557 31.2607 165.071 31.6101C164.585 31.9553 163.971 32.1278 163.23 32.1278C162.616 32.1278 162.071 31.9936 161.593 31.7251C161.116 31.4524 160.741 31.0433 160.468 30.4979C160.196 29.9482 160.059 29.2557 160.059 28.4205V22.1818H161.568V28.3182C161.568 29.0341 161.768 29.6051 162.169 30.0312C162.574 30.4574 163.089 30.6705 163.716 30.6705C164.091 30.6705 164.472 30.5746 164.86 30.3828C165.252 30.1911 165.58 29.897 165.844 29.5007C166.113 29.1044 166.247 28.5994 166.247 27.9858ZM173.408 32.2301C172.785 32.2301 172.221 32.1129 171.714 31.8786C171.207 31.6399 170.804 31.2969 170.506 30.8494C170.207 30.3977 170.058 29.8523 170.058 29.2131C170.058 28.6506 170.169 28.1946 170.391 27.8452C170.612 27.4915 170.908 27.2145 171.279 27.0142C171.65 26.8139 172.059 26.6648 172.506 26.5668C172.958 26.4645 173.412 26.3835 173.868 26.3239C174.464 26.2472 174.948 26.1896 175.319 26.1513C175.694 26.1087 175.967 26.0384 176.137 25.9403C176.312 25.8423 176.399 25.6719 176.399 25.429V25.3778C176.399 24.7472 176.226 24.2571 175.881 23.9077C175.54 23.5582 175.023 23.3835 174.328 23.3835C173.608 23.3835 173.043 23.5412 172.634 23.8565C172.225 24.1719 171.937 24.5085 171.771 24.8665L170.339 24.3551C170.595 23.7585 170.936 23.294 171.362 22.9616C171.793 22.625 172.261 22.3906 172.768 22.2585C173.28 22.1222 173.783 22.054 174.277 22.054C174.592 22.054 174.954 22.0923 175.364 22.169C175.777 22.2415 176.175 22.3928 176.559 22.6229C176.947 22.853 177.268 23.2003 177.524 23.6648C177.78 24.1293 177.908 24.7514 177.908 25.5312V32H176.399V30.6705H176.322C176.22 30.8835 176.05 31.1115 175.811 31.3544C175.572 31.5973 175.255 31.804 174.859 31.9744C174.462 32.1449 173.979 32.2301 173.408 32.2301ZM173.638 30.875C174.234 30.875 174.737 30.7578 175.146 30.5234C175.56 30.2891 175.871 29.9865 176.079 29.6158C176.293 29.245 176.399 28.8551 176.399 28.446V27.0653C176.335 27.142 176.195 27.2124 175.977 27.2763C175.764 27.3359 175.517 27.3892 175.236 27.4361C174.959 27.4787 174.688 27.517 174.424 27.5511C174.164 27.581 173.953 27.6065 173.791 27.6278C173.399 27.679 173.033 27.7621 172.692 27.8771C172.355 27.9879 172.082 28.1562 171.873 28.3821C171.669 28.6037 171.567 28.9062 171.567 29.2898C171.567 29.8139 171.761 30.2102 172.148 30.4787C172.54 30.7429 173.037 30.875 173.638 30.875ZM180.661 32V22.1818H182.118V23.6648H182.221C182.4 23.179 182.723 22.7848 183.192 22.4822C183.661 22.1797 184.189 22.0284 184.777 22.0284C184.888 22.0284 185.027 22.0305 185.193 22.0348C185.359 22.0391 185.485 22.0455 185.57 22.054V23.5881C185.519 23.5753 185.402 23.5561 185.218 23.5305C185.04 23.5007 184.85 23.4858 184.65 23.4858C184.172 23.4858 183.746 23.5859 183.371 23.7862C183 23.9822 182.706 24.255 182.489 24.6044C182.276 24.9496 182.169 25.3437 182.169 25.7869V32H180.661ZM190.767 32.2045C189.949 32.2045 189.226 31.9979 188.6 31.5845C187.973 31.1669 187.483 30.5788 187.13 29.8203C186.776 29.0575 186.599 28.1562 186.599 27.1165C186.599 26.0852 186.776 25.1903 187.13 24.4318C187.483 23.6733 187.976 23.0874 188.606 22.674C189.237 22.2607 189.966 22.054 190.792 22.054C191.432 22.054 191.937 22.1605 192.307 22.3736C192.682 22.5824 192.968 22.821 193.164 23.0895C193.364 23.3537 193.52 23.571 193.63 23.7415H193.758V18.9091H195.267V32H193.809V30.4915H193.63C193.52 30.6705 193.362 30.8963 193.157 31.169C192.953 31.4375 192.661 31.6783 192.282 31.8913C191.902 32.1001 191.397 32.2045 190.767 32.2045ZM190.971 30.8494C191.576 30.8494 192.088 30.6918 192.505 30.3764C192.923 30.0568 193.241 29.6158 193.458 29.0533C193.675 28.4865 193.784 27.8324 193.784 27.0909C193.784 26.358 193.677 25.7166 193.464 25.1669C193.251 24.6129 192.936 24.1825 192.518 23.8757C192.101 23.5646 191.585 23.4091 190.971 23.4091C190.332 23.4091 189.799 23.5732 189.373 23.9013C188.951 24.2251 188.634 24.6662 188.421 25.2244C188.212 25.7784 188.108 26.4006 188.108 27.0909C188.108 27.7898 188.214 28.4247 188.427 28.9957C188.645 29.5625 188.964 30.0142 189.386 30.3509C189.812 30.6832 190.341 30.8494 190.971 30.8494ZM201.128 32.2301C200.506 32.2301 199.941 32.1129 199.434 31.8786C198.927 31.6399 198.525 31.2969 198.226 30.8494C197.928 30.3977 197.779 29.8523 197.779 29.2131C197.779 28.6506 197.89 28.1946 198.111 27.8452C198.333 27.4915 198.629 27.2145 199 27.0142C199.37 26.8139 199.78 26.6648 200.227 26.5668C200.679 26.4645 201.133 26.3835 201.589 26.3239C202.185 26.2472 202.669 26.1896 203.04 26.1513C203.415 26.1087 203.687 26.0384 203.858 25.9403C204.032 25.8423 204.12 25.6719 204.12 25.429V25.3778C204.12 24.7472 203.947 24.2571 203.602 23.9077C203.261 23.5582 202.743 23.3835 202.049 23.3835C201.329 23.3835 200.764 23.5412 200.355 23.8565C199.946 24.1719 199.658 24.5085 199.492 24.8665L198.06 24.3551C198.316 23.7585 198.657 23.294 199.083 22.9616C199.513 22.625 199.982 22.3906 200.489 22.2585C201 22.1222 201.503 22.054 201.998 22.054C202.313 22.054 202.675 22.0923 203.084 22.169C203.498 22.2415 203.896 22.3928 204.28 22.6229C204.667 22.853 204.989 23.2003 205.245 23.6648C205.5 24.1293 205.628 24.7514 205.628 25.5312V32H204.12V30.6705H204.043C203.941 30.8835 203.77 31.1115 203.532 31.3544C203.293 31.5973 202.976 31.804 202.579 31.9744C202.183 32.1449 201.699 32.2301 201.128 32.2301ZM201.358 30.875C201.955 30.875 202.458 30.7578 202.867 30.5234C203.28 30.2891 203.591 29.9865 203.8 29.6158C204.013 29.245 204.12 28.8551 204.12 28.446V27.0653C204.056 27.142 203.915 27.2124 203.698 27.2763C203.485 27.3359 203.238 27.3892 202.956 27.4361C202.679 27.4787 202.409 27.517 202.145 27.5511C201.885 27.581 201.674 27.6065 201.512 27.6278C201.12 27.679 200.753 27.7621 200.412 27.8771C200.076 27.9879 199.803 28.1562 199.594 28.3821C199.39 28.6037 199.287 28.9062 199.287 29.2898C199.287 29.8139 199.481 30.2102 199.869 30.4787C200.261 30.7429 200.758 30.875 201.358 30.875ZM208.382 32V22.1818H209.839V23.6648H209.941C210.12 23.179 210.444 22.7848 210.913 22.4822C211.382 22.1797 211.91 22.0284 212.498 22.0284C212.609 22.0284 212.747 22.0305 212.914 22.0348C213.08 22.0391 213.206 22.0455 213.291 22.054V23.5881C213.24 23.5753 213.122 23.5561 212.939 23.5305C212.76 23.5007 212.571 23.4858 212.37 23.4858C211.893 23.4858 211.467 23.5859 211.092 23.7862C210.721 23.9822 210.427 24.255 210.21 24.6044C209.997 24.9496 209.89 25.3437 209.89 25.7869V32H208.382Z" fill="#C4C4C4"/>
</svg>
